<svg xmlns="http://www.w3.org/2000/svg" viewBox="0 0 512 512" fill="none">
  <defs>
    <linearGradient id="phGradient" x1="0%" y1="0%" x2="100%" y2="100%">
      <stop offset="0%" stop-color="#FF003C" />
      <stop offset="50%" stop-color="#FF6A00" />
      <stop offset="100%" stop-color="#FFB800" />
    </linearGradient>
    <filter id="glow" x="-20%" y="-20%" width="140%" height="140%">
      <feGaussianBlur stdDeviation="8" result="blur" />
      <feMerge>
        <feMergeNode in="blur" />
        <feMergeNode in="SourceGraphic" />
      </feMerge>
    </filter>
  </defs>
  <!-- Outer decorative tech circles -->
  <circle cx="256" cy="256" r="220" stroke="url(#phGradient)" stroke-width="4" stroke-dasharray="20 10 5 10" opacity="0.4" />
  <circle cx="256" cy="256" r="236" stroke="url(#phGradient)" stroke-width="2" opacity="0.2" />
  
  <!-- Connected PH Monogram in solid geometric shapes -->
  <g filter="url(#glow)">
    <!-- P Left Stem -->
    <rect x="110" y="110" width="50" height="292" rx="25" fill="url(#phGradient)" />
    
    <!-- H Right Stem -->
    <rect x="350" y="110" width="50" height="292" rx="25" fill="url(#phGradient)" />
    
    <!-- H Left Stem (under P bow, merging) -->
    <rect x="230" y="210" width="50" height="192" rx="25" fill="url(#phGradient)" />
    
    <!-- H Crossbar -->
    <rect x="260" y="231" width="110" height="50" rx="25" fill="url(#phGradient)" />
    
    <!-- P Bow (Outer curve and inner cutout) -->
    <path d="M 160 110 H 230 A 50 50 0 0 1 280 160 V 210 A 50 50 0 0 1 230 260 H 160 V 210 H 215 A 15 15 0 0 0 230 195 V 175 A 15 15 0 0 0 215 160 H 160 Z" fill="url(#phGradient)" />
  </g>
</svg>